<svg id="Layer_1" data-name="Layer 1" xmlns="http://www.w3.org/2000/svg" viewBox="0 0 226.56 141.73"><defs><style>.cls-1{fill:#fdb916;}</style></defs><path class="cls-1" d="M174.87,33.57A10.37,10.37,0,1,1,164.5,23.2a10.37,10.37,0,0,1,10.37,10.37m51.39,72.24a21,21,0,0,0-1.36-7.23c-2.4-6.41-7.17-10.33-15.07-12.38C199.52,83.53,192.25,73,188,65.55h0c-2-3.72-5.69-11.67-6.32-16-.7-4.73,1.44-8.11,2.06-12.58a18.59,18.59,0,0,0,.05-4.53,19.66,19.66,0,0,0-19.56-17.86h-.47l-.87,0h-.09a19.62,19.62,0,0,0-17.48,24.91h0a29.82,29.82,0,0,1,.93,4.8c0,.3,0,.61.07.91a14.29,14.29,0,0,1,0,2.07v.07c-.7,11.08-11.63,30.24-23.68,30.53-.41,0-1.13,0-1.16,0a11.56,11.56,0,0,1-2.78-.57C110.91,74.73,102.49,66.12,99.42,57c-.43-1.41-2.14-8.1,1.2-14.37h0a29,29,0,1,0-54.13-7.19c1.22,9.6,2.7,18.83-.14,28.25a48.6,48.6,0,0,1-3.51,8.81c-5,9.41-10.11,16.84-14.63,19.19-3.58,1.86-6.89,2.14-10.63,3.23a21.83,21.83,0,0,0-3.23,1.26A23.63,23.63,0,0,0,.62,113.49a20.85,20.85,0,0,0,.23,9.75,23.61,23.61,0,0,0,46.58-5.43,21.9,21.9,0,0,0-.13-2.44,25.07,25.07,0,0,0-.53-4c-1.62-7.3-3-13.47-.45-20.86C48.23,84.9,52,79.1,55.56,74.39c7.37-9.63,16.33-17.82,27.88-17.29C90.08,57.41,93.86,62,95.57,64a40.32,40.32,0,0,1,7.84,13.94,24.32,24.32,0,0,1,.77,8.17c0,.32-.09,1.57-.2,2.92l-.15,1.85c-.07.69-.14,1.3-.21,1.7h0a18.27,18.27,0,1,0,36.18,3.64c0-.77-.14-2.25-.13-2.25s0-.21,0-.27a42.12,42.12,0,0,1-.32-8.73A43.49,43.49,0,0,1,153.77,57c9.11-7.77,20.87,2.46,26,10.85l.11,0-.11.05c3,4.82,8.44,14.92,9,20.41.41,4.3-.81,8.29-1.61,12.27a20,20,0,0,0,16,24.89,20.53,20.53,0,0,0,11.58-1.61,19.9,19.9,0,0,0,11.51-18"/><path class="cls-1" d="M220,134a2.52,2.52,0,0,0-.29-.37,1.72,1.72,0,0,0,.66-.41,1.63,1.63,0,0,0,.41-1.14,1.57,1.57,0,0,0-.52-1.27,2.16,2.16,0,0,0-1.43-.42H217a.51.51,0,0,0-.36.13.49.49,0,0,0-.15.37v4.65a.53.53,0,0,0,.14.37.51.51,0,0,0,.37.14.52.52,0,0,0,.36-.14.53.53,0,0,0,.13-.37v-1.73h.74a.72.72,0,0,1,.79.44l1,1.57a.49.49,0,0,0,.43.24.52.52,0,0,0,.33-.12.41.41,0,0,0,.15-.33.48.48,0,0,0-.08-.28Zm-.21-1.91a.73.73,0,0,1-.23.61,1.18,1.18,0,0,1-.78.2h-1.3v-1.61h1.3a1.27,1.27,0,0,1,.79.2A.72.72,0,0,1,219.78,132.13Z"/><path class="cls-1" d="M218.4,127.63a5.67,5.67,0,1,0,5.67,5.67A5.68,5.68,0,0,0,218.4,127.63Zm0,10.44a4.77,4.77,0,1,1,4.77-4.77A4.78,4.78,0,0,1,218.4,138.07Z"/></svg>