<svg version="1.1" id="Layer_1" xmlns="http://www.w3.org/2000/svg" x="0" y="0" viewBox="0 0 500 150" xml:space="preserve"><style>.st0{fill:#fff}</style><path class="st0" d="M155.09 118.95c1.23 1.75 3.37 3.11 6.16 3.11 3.5 0 7.98-2.14 7.98-8.44V82.48h7.01v31.86c0 9.21-7.33 14.73-14.8 14.73-5.32 0-9.41-2.47-12-6.03l5.65-4.09zm54.06-.58h-17.52l-3.57 10.32h-7.4l16.81-46.2h5.84l16.81 46.2h-7.4l-3.57-10.32zm-2.02-6.23l-6.68-20.18h-.13l-6.68 20.18h13.49zm17.92-29.66h7.01v23.82h.13l19.01-23.82h8.31l-14.8 18.23 16.35 27.97h-8.31l-12.59-22.58-8.11 8.5v14.08h-7.01v-46.2zm64.57 35.89H272.1l-3.57 10.32h-7.4l16.81-46.2h5.84l16.81 46.2h-7.4l-3.57-10.32zm-2.01-6.23l-6.68-20.18h-.13l-6.68 20.18h13.49zm17.91-29.66h18.04c3.89 0 6.94.91 9.41 3.05 2.6 2.21 4.61 5.71 4.61 9.86 0 5.97-3.37 10.84-8.95 12.78l10.71 20.51h-8.31l-9.54-19.73h-8.96v19.73h-7.01v-46.2zm7.01 20.25h10.58c5.26 0 7.85-3.44 7.85-7.33 0-2.4-.91-4.22-2.34-5.26-1.3-.97-2.73-1.43-5.13-1.43h-10.97v14.02zm39.27-14.02h-12.65v-6.23h32.32v6.23h-12.65v39.97h-7.01V88.71zm43.49 29.66h-17.52l-3.57 10.32h-7.4l16.81-46.2h5.84l16.81 46.2h-7.4l-3.57-10.32zm-2.02-6.23l-6.68-20.18h-.13l-6.68 20.18h13.49zm33.49-29.66h29.53v6.62h-22.52v13.17h19.21v6.23h-19.21v13.56h22.52v6.62h-29.53v-46.2zm36.09 0h29.53v6.62h-22.52v13.17h19.21v6.23h-19.21v13.56h22.52v6.62h-29.53v-46.2zM139.98 6.29l-33.55 36.74c-.4 18.63-4.93 46.68-24.69 72.31l29.19 7.29c48.7-45.85 29.05-116.34 29.05-116.34z"/><path d="M106.43 43.03c.28-12.86-1.41-21.24-1.41-21.24l-74.04 81.06 50.63 12.65c.04-.05.08-.1.12-.16l-33.67-8.41 58.37-63.9z" fill="#fff"/><path d="M48.07 106.93l33.67 8.41c19.76-25.63 24.29-53.68 24.69-72.31l-58.36 63.9zm46.83 16.84c2.93 0 5.81.14 8.64.4l-95.5-23.56s17.77 5.89 39.24 38c11.35-9.07 28.47-14.84 47.62-14.84z" fill="#fff"/><path class="st0" d="M400.59 82.58c0-.1.05-.15.15-.15h5.36c.11 0 .17.05.17.15v.75c0 .09-.05.14-.15.14h-1.83c-.07 0-.11.03-.11.09v5.79c0 .11-.05.17-.14.17h-1.15c-.08 0-.12-.05-.12-.15v-5.79c0-.07-.04-.11-.11-.11h-1.93c-.1 0-.15-.05-.15-.14v-.75zm6.7 6.88c-.04-.04-.05-.08-.05-.15v-6.72c0-.11.05-.17.15-.17h1.62c.06 0 .11.01.14.03.03.02.05.06.06.11l1.68 4.51c.04.1.09.1.14-.02l1.63-4.45c.03-.12.09-.18.18-.18h1.68c.08 0 .12.05.12.15v6.74c0 .07-.02.12-.05.15-.03.03-.08.05-.15.05h-1.02c-.07 0-.12-.01-.15-.04s-.04-.07-.04-.13v-5c0-.04-.01-.06-.02-.06-.02 0-.03.02-.05.06l-1.82 5.03c-.03.09-.09.14-.18.14h-.69c-.1 0-.17-.05-.2-.14l-1.8-4.97c-.01-.04-.03-.06-.05-.06-.02 0-.03.03-.03.08v4.93c0 .05-.01.09-.03.11-.02.03-.07.04-.14.04h-.81c-.04.02-.09 0-.12-.04z"/></svg>