<svg version="1.1" id="Layer_1" xmlns="http://www.w3.org/2000/svg" x="0" y="0" viewBox="0 0 575 101" xml:space="preserve"><style>.st1{fill:#fff}</style><path fill="#173e5c" d="M-.4-.4h575v101H-.4z"/><path class="st1" d="M122.8 24.6c0 4-3.2 7.2-7.2 7.2s-7.2-3.2-7.2-7.2 3.2-7.2 7.2-7.2 7.2 3.2 7.2 7.2m35.7 50.2c0-.4 0-2.5-.9-5-1.7-4.5-5-7.2-10.5-8.6-7.2-1.9-12.2-9.2-15.2-14.4-1.4-2.6-4-8.1-4.4-11.1-.5-3.3 1-5.6 1.4-8.7.1-1.1.1-2.1 0-3.1-.6-7-6.5-12.4-13.6-12.4h-1c-7.1.5-12.7 6.4-12.7 13.6 0 1.3.2 2.5.5 3.7 0 0 .5 1.5.7 3.3v2c-.5 7.7-8.1 21-16.5 21.2h-.8c-.6 0-1.3-.2-1.9-.4-5.4-1.8-11.2-7.8-13.4-14.1-.3-1-1.5-5.6.8-10 1.4-2.8 2.2-5.9 2.2-9.2 0-11.1-9-20.1-20.1-20.1S33 10.5 33 21.6c0 1.4.2 2.9.4 4.2.8 6.7 1.9 13.1-.1 19.6-.6 2.1-1.4 4.1-2.4 6.1-3.5 6.5-7 11.7-10.2 13.3-2.5 1.3-4.8 1.5-7.4 2.3-.8.2-1.5.5-2.3.9-4.9 2.2-8.5 6.6-9.5 12-.5 2.3-.4 4.6.2 6.8 1.7 7.2 8.2 12.6 16 12.6 9.1 0 16.4-7.3 16.4-16.4 0-.6 0-1.1-.1-1.7-.1-.9-.2-1.9-.4-2.8-1.1-5.1-2-9.4-.3-14.5 1.3-3.9 3.9-7.9 6.4-11.2 5.1-6.7 11.4-12.4 19.4-12 4.6.2 7.2 3.4 8.4 4.8 2.3 2.7 4.4 6.3 5.5 9.7.6 1.9.6 3.8.5 5.7 0 .2-.1 1.1-.1 2 0 .4-.1.9-.1 1.3 0 .5-.1.9-.1 1.2-.2.8-.3 1.7-.3 2.5 0 7 5.7 12.7 12.7 12.7 7 0 12.7-5.7 12.7-12.7 0-.5-.1-1.6-.1-1.6v-.2c-.4-3-.2-5.7-.2-6.1.8-7.3 4.5-14.7 10-19.4 6.3-5.4 14.5 1.7 18.1 7.5h.1-.1c2.1 3.4 5.9 10.4 6.2 14.2.3 3-.6 5.8-1.1 8.5-.3 1.2-.5 2.4-.5 3.6 0 6.9 5 12.6 11.6 13.7 4.5.6 7.4-.9 8-1.1 4.9-2 8.2-6.7 8.2-12.3m62.1-46.6c0-1 .9-1.4 1.9-1.4.9 0 1.9.4 1.9 1.4V68c0 1-1 1.5-1.9 1.5-1 0-1.9-.5-1.9-1.5V28.2zm28.9 2.1c-5.4 0-8.4 2.8-8.4 8.9v18.1c0 6.1 3 8.9 8.6 8.9 7 0 7.6-4.4 7.9-7.2.1-.9.7-1.5 1.9-1.5 1.3 0 1.9.5 1.9 2.4 0 5.3-4.5 9.9-12.2 9.9-6.6 0-12.1-3.4-12.1-12.5V39.2c0-9.1 5.6-12.4 12.3-12.4 7.7 0 12 4.5 12 9.8 0 1.9-.6 2.3-1.9 2.3-1.3 0-1.9-.6-1.9-1.5 0-2.5-1.1-7.1-8.1-7.1m27 0v16.4h7.9c5.2 0 8.8-2.3 8.8-8.2 0-5.8-3.6-8.1-8.8-8.1h-7.9zm-3.8-2.1c0-.8.6-1.3 1.5-1.4h10.3c6.8 0 12.6 2.7 12.6 11.5 0 7.2-4 10.4-9.1 11.3l9 17.3c.2.2.2.5.2.8 0 1-1.1 2-2.2 2-.9 0-1.6-1.1-2-2l-9-17.5h-7.4V68c0 1-1 1.5-1.9 1.5-1 0-1.9-.5-1.9-1.5V28.2zm55.2 11c0-6.1-3.1-8.9-8.3-8.9-5.2 0-8.3 2.8-8.3 8.9v18.1c0 6.1 3.1 8.9 8.3 8.9 5.2 0 8.3-2.8 8.3-8.9V39.2zm-20.4 18.1V39.2c0-9.1 5.3-12.4 12.2-12.4s12.2 3.4 12.2 12.4v18.1c0 9.1-5.3 12.5-12.2 12.5s-12.2-3.4-12.2-12.5m40.9-27v18.5h8.4c5.2 0 8.3-2.9 8.3-8.9v-.7c0-6.1-3.1-8.9-8.3-8.9h-8.4zm-3.8-2.1c0-.8.6-1.3 1.6-1.4H357c6.8 0 12 3.3 12 12.4v.6c0 9.1-5.3 12.4-12.2 12.4h-8.4V68c0 1-1 1.5-1.9 1.5-1 0-1.9-.5-1.9-1.5V28.2zm39 2.1v16.4h7.9c5.2 0 8.8-2.3 8.8-8.2 0-5.8-3.6-8.1-8.8-8.1h-7.9zm-3.8-2.1c0-.8.6-1.3 1.5-1.4h10.3c6.8 0 12.6 2.7 12.6 11.5 0 7.2-4 10.4-9.1 11.3l9 17.3c.2.2.2.5.2.8 0 1-1.1 2-2.2 2-.9 0-1.6-1.1-2-2L391 50h-7.4v18c0 1-1 1.5-1.9 1.5-1 0-1.9-.5-1.9-1.5V28.2zm55.2 11c0-6.1-3.1-8.9-8.3-8.9-5.2 0-8.3 2.8-8.3 8.9v18.1c0 6.1 3.1 8.9 8.3 8.9 5.2 0 8.3-2.8 8.3-8.9V39.2zm-20.4 18.1V39.2c0-9.1 5.3-12.4 12.2-12.4S439 30.2 439 39.2v18.1c0 9.1-5.3 12.5-12.2 12.5s-12.2-3.4-12.2-12.5m37.1-29.1c0-1 .9-1.5 1.8-1.5h20.7c1 0 1.5.9 1.5 1.7 0 1-.5 1.9-1.5 1.9h-18.6v16.1h9.2c.9 0 1.4.8 1.4 1.8 0 .8-.4 1.6-1.4 1.6h-9.2V68c0 1-1 1.5-1.9 1.5-1 0-1.9-.5-1.9-1.5V28.2zm33.2 0c0-1 .9-1.4 1.9-1.4.9 0 1.9.4 1.9 1.4V68c0 1-1 1.5-1.9 1.5-1 0-1.9-.5-1.9-1.5V28.2zm18.9 41.3c-.9 0-1.8-.5-1.8-1.5V28.2c0-1 .9-1.4 1.9-1.4.9 0 1.9.4 1.9 1.4v37.7h16.6c.9 0 1.3.9 1.3 1.8s-.4 1.8-1.3 1.8h-18.6zM205.4 26.8c-1.4 0-2.3 1.2-3.1 2.7l-10 19.4-10-19.4c-.8-1.5-1.7-2.7-3.1-2.7-1 0-1.9.5-1.9 1.9l-.1 30.6s0 5.4-2.5 9.6c0 0-.6 1.1-.6 2.4 0 2.8 2.3 5.1 5.1 5.1s5.1-2.3 5.1-5.1c0-1.4-.6-2.4-.6-2.4-2.5-4.2-2.3-9.5-2.3-9.5l-.3-24.4 9.6 18.5c.5.9 1 1.2 1.5 1.2s1.1-.4 1.6-1.2l9.7-18.3V68c0 1 1 1.5 1.9 1.5 1 0 1.9-.5 1.9-1.5V28.6c0-1.4-.8-1.8-1.9-1.8zm-23.6 44.6c0 1.5-1.2 2.7-2.7 2.7-1.5 0-2.7-1.2-2.7-2.7 0-1.5 1.2-2.7 2.7-2.7 1.5 0 2.7 1.2 2.7 2.7zm378.7-8c-1.2 0-2.1.5-2.1.5-3.5 2.1-8.1 2-8.1 2h-12.7V49.7h9.2c1.1 0 1.5-.8 1.5-1.6 0-.9-.5-1.8-1.5-1.8h-9.2v-16h18.7c.9 0 1.5-.9 1.5-1.9 0-.8-.4-1.7-1.5-1.7h-20.8c-.9 0-1.8.5-1.8 1.5V68c0 1 .9 1.5 1.8 1.5h14.7s4.9 0 8.2 2.1c0 0 1 .5 2.1.5 2.4 0 4.4-2 4.4-4.4 0-2.3-2-4.3-4.4-4.3zm6.6-32.1c-.1-.1-.1-.2-.2-.3.2-.1.3-.2.5-.3.2-.2.3-.5.3-.8 0-.4-.1-.7-.4-.9-.2-.2-.6-.3-1-.3H565c-.1 0-.2.1-.3.1 0 0-.1.1-.1.3v3.3c0 .1.1.2.1.3 0 0 .1.1.3.1.1 0 .2 0 .3-.1 0 0 .1-.1.1-.3v-1.2h.5c.1 0 .3 0 .3.1.1 0 .2.1.2.2l.7 1.1c.1.1.2.2.3.2.1 0 .2 0 .2-.1.1-.1.1-.1.1-.2s0-.1-.1-.2l-.5-1zm-.2-1.3c0 .2-.1.3-.2.4-.1.1-.3.1-.6.1h-.9v-1.1h.9c.3 0 .4 0 .6.1.2.2.2.3.2.5z"/><path class="st1" d="M565.9 26.8c-2.2 0-4 1.8-4 4s1.8 4 4 4 4-1.8 4-4c.1-2.2-1.8-4-4-4zm0 7.4c-1.9 0-3.4-1.5-3.4-3.4s1.5-3.4 3.4-3.4 3.4 1.5 3.4 3.4-1.5 3.4-3.4 3.4z"/></svg>