<svg id="Layer_1" data-name="Layer 1" xmlns="http://www.w3.org/2000/svg" viewBox="0 0 575 100.97"><defs><style>.cls-2{fill:#173e5c}</style></defs><path d="M122.8 24.58a7.21 7.21 0 11-7.21-7.21 7.21 7.21 0 017.21 7.21m35.73 50.22a14.56 14.56 0 00-.95-5c-1.67-4.46-5-7.18-10.48-8.6-7.17-1.86-12.22-9.21-15.2-14.36-1.39-2.59-4-8.12-4.4-11.11-.48-3.29 1-5.64 1.44-8.75a12.78 12.78 0 000-3.15 13.65 13.65 0 00-13.6-12.41h-.99a13.66 13.66 0 00-12.15 17.32 20.69 20.69 0 01.65 3.34c0 .21 0 .42.05.63a11.36 11.36 0 010 1.43v.05c-.49 7.71-8.09 21-16.46 21.22h-.81a7.88 7.88 0 01-1.9-.41c-5.39-1.81-11.24-7.8-13.38-14.13a13.89 13.89 0 01.84-10 20.14 20.14 0 10-37.63-5c.85 6.67 1.88 13.09-.1 19.64A32.69 32.69 0 0131 51.65C27.57 58.19 24 63.36 20.85 65c-2.48 1.29-4.79 1.49-7.38 2.25a14.55 14.55 0 00-2.25.87 16.41 16.41 0 00-9.54 12 14.51 14.51 0 00.16 6.78 16.41 16.41 0 0032.37-3.78c0-.57 0-1.14-.08-1.7a16.73 16.73 0 00-.38-2.78c-1.12-5.07-2.05-9.36-.3-14.5A41.77 41.77 0 0139.86 53c5.13-6.7 11.35-12.39 19.38-12 4.62.21 7.25 3.4 8.44 4.78a28 28 0 015.45 9.68 17.1 17.1 0 01.54 5.68c0 .23-.07 1.09-.14 2 0 .42-.08.85-.11 1.28s-.1.91-.15 1.18a12.41 12.41 0 00-.27 2.51 12.71 12.71 0 1025.41 0c0-.53-.09-1.56-.09-1.56v-.19a28.66 28.66 0 01-.22-6.07 30.2 30.2 0 0110-19.4c6.33-5.4 14.5 1.71 18.08 7.54h.07-.07c2.05 3.35 5.86 10.37 6.22 14.18.29 3-.56 5.76-1.11 8.53a13.67 13.67 0 00-.49 3.64 13.84 13.84 0 0011.63 13.66 14.26 14.26 0 008.05-1.11 13.83 13.83 0 008-12.55" fill="#fdb916"/><path class="cls-2" d="M220.61 28.17c0-1 .93-1.4 1.93-1.4s1.93.41 1.93 1.4V68c0 1-1 1.52-1.93 1.52s-1.93-.52-1.93-1.52zm28.92 2.16c-5.44 0-8.42 2.81-8.42 8.88v18.11c0 6.14 3 8.94 8.65 8.94 6.95 0 7.6-4.38 7.95-7.18.11-.94.7-1.52 1.92-1.52s1.93.47 1.93 2.39c0 5.32-4.5 9.88-12.21 9.88-6.6 0-12.09-3.39-12.09-12.51V39.21c0-9 5.61-12.44 12.27-12.44 7.65 0 12 4.5 12 9.76 0 1.92-.58 2.33-1.93 2.33s-1.87-.64-1.92-1.46c-.12-2.51-1.23-7.07-8.18-7.07m27.02 0v16.36h7.94c5.2 0 8.77-2.34 8.77-8.24s-3.57-8.12-8.77-8.12zm-3.86-2.16a1.44 1.44 0 011.46-1.4h10.34c6.84 0 12.62 2.75 12.62 11.51 0 7.24-4 10.4-9.11 11.27l9 17.3a1.3 1.3 0 01.23.76 2.27 2.27 0 01-2.22 2c-.93 0-1.58-1.11-2-2l-9-17.53h-7.42V68c0 1-1 1.52-1.93 1.52s-1.97-.52-1.97-1.52zm55.27 11.04c0-6.07-3.1-8.88-8.3-8.88s-8.29 2.81-8.29 8.88v18.11c0 6.14 3.09 8.94 8.29 8.94s8.3-2.8 8.3-8.94zm-20.45 18.11V39.21c0-9 5.32-12.44 12.15-12.44s12.16 3.39 12.16 12.44v18.11c0 9.12-5.32 12.51-12.16 12.51s-12.15-3.39-12.15-12.51m40.96-26.99v18.52h8.41c5.2 0 8.3-2.86 8.3-8.94v-.7c0-6.07-3.1-8.88-8.3-8.88zm-3.86-2.16c0-.76.64-1.34 1.64-1.4H357c6.77 0 12 3.33 12 12.39v.58c0 9.06-5.32 12.44-12.15 12.44h-8.41V68c0 1-1 1.52-1.93 1.52s-1.93-.52-1.93-1.52zm39.03 2.16v16.36h7.94c5.2 0 8.77-2.34 8.77-8.24s-3.57-8.12-8.77-8.12zm-3.86-2.16a1.44 1.44 0 011.46-1.4h10.34c6.84 0 12.62 2.75 12.62 11.51 0 7.24-4 10.4-9.11 11.27l9 17.3a1.3 1.3 0 01.23.76 2.27 2.27 0 01-2.22 2c-.94 0-1.58-1.11-2.05-2L391 50h-7.42v18c0 1-1 1.52-1.93 1.52s-1.9-.52-1.9-1.52zM435 39.21c0-6.07-3.1-8.88-8.3-8.88s-8.29 2.81-8.29 8.88v18.11c0 6.14 3.09 8.94 8.29 8.94s8.3-2.8 8.3-8.94zm-20.43 18.11V39.21c0-9 5.32-12.44 12.15-12.44s12.15 3.39 12.15 12.44v18.11c0 9.12-5.31 12.51-12.15 12.51s-12.15-3.39-12.15-12.51m37.1-29.09a1.56 1.56 0 011.75-1.46h20.68a1.53 1.53 0 011.46 1.69c0 1-.52 1.87-1.46 1.87h-18.57V46.4h9.23c.87 0 1.4.82 1.4 1.75a1.43 1.43 0 01-1.4 1.58h-9.23V68c0 1-1 1.46-1.93 1.46s-1.93-.46-1.93-1.46zm33.24-.06c0-1 .94-1.4 1.93-1.4s1.93.41 1.93 1.4V68c0 1-1 1.52-1.93 1.52s-1.93-.52-1.93-1.52zm18.87 41.31A1.61 1.61 0 01502 68V28.17c0-1 .93-1.4 1.93-1.4s1.92.41 1.92 1.4v37.74h16.65c.88 0 1.29.88 1.29 1.76s-.41 1.81-1.29 1.81zM205.42 26.77c-1.4 0-2.34 1.23-3.1 2.69l-10 19.39-10-19.39c-.76-1.46-1.7-2.69-3.1-2.69a1.73 1.73 0 00-1.93 1.87l-.09 30.61a21.07 21.07 0 01-2.48 9.61 5.11 5.11 0 109.62 2.42 4.84 4.84 0 00-.6-2.41 19.23 19.23 0 01-2.34-9.53L181.06 35l9.64 18.52c.46.87 1 1.23 1.52 1.23s1.11-.36 1.57-1.23l9.7-18.35V68c0 1 1 1.52 1.93 1.52s1.93-.53 1.93-1.52V28.64a1.71 1.71 0 00-1.93-1.87zm-23.58 44.62a2.71 2.71 0 11-2.71-2.7 2.71 2.71 0 012.71 2.7zm378.69-7.98a4.24 4.24 0 00-2 .53 16.63 16.63 0 01-8.14 2h-12.7V49.73h9.18a1.44 1.44 0 001.46-1.58 1.57 1.57 0 00-1.46-1.75h-9.18V30.33h18.7c.93 0 1.46-.87 1.46-1.87a1.5 1.5 0 00-1.46-1.69h-20.8a1.56 1.56 0 00-1.75 1.46V68a1.6 1.6 0 001.75 1.52h14.71s4.88 0 8.21 2.12a4.37 4.37 0 006.44-3.85 4.35 4.35 0 00-4.42-4.38zm6.53-32.06a1.18 1.18 0 00-.21-.26 1.17 1.17 0 00.47-.29 1.12 1.12 0 00.29-.81 1.13 1.13 0 00-.36-.9 1.55 1.55 0 00-1-.3h-1.3a.37.37 0 00-.26.09.35.35 0 00-.11.26v3.31a.34.34 0 00.1.25.35.35 0 00.26.11.36.36 0 00.26-.11.35.35 0 00.09-.25v-1.24h.52a.64.64 0 01.34.07.71.71 0 01.23.25l.71 1.11a.37.37 0 00.54.09.3.3 0 00.1-.24.32.32 0 00-.05-.19zm-.15-1.35a.54.54 0 01-.16.44.91.91 0 01-.55.14h-.93v-1.15h.93a.89.89 0 01.55.14.51.51 0 01.16.43z"/><path class="cls-2" d="M565.93 26.8a4 4 0 104 4 4 4 0 00-4-4zm0 7.41a3.39 3.39 0 113.39-3.39 3.39 3.39 0 01-3.39 3.39z"/></svg>